<svg width="1650" height="378" viewBox="0 0 1650 378" fill="none" xmlns="http://www.w3.org/2000/svg">
<path d="M1276.19 265.5C1263.21 244.293 1250.21 223.1 1237.19 201.92C1236.08 200.11 1235.13 198.19 1233.9 195.92C1236.8 195.05 1238.9 194.46 1241.06 193.75C1260.6 187.18 1272.64 171.07 1273.26 150.75C1273.99 126.63 1261.36 109.75 1237.89 103.91C1232.58 102.488 1227.12 101.65 1221.63 101.41C1204.11 100.97 1186.63 100.99 1169.05 100.89C1158.86 100.84 1158.67 101.05 1158.67 110.97V266.32C1158.67 268.16 1158.67 270 1158.86 271.82C1159.09 274.36 1160.4 276.08 1163.11 276.12C1168.61 276.2 1174.11 276.19 1179.62 276.12C1182.29 276.12 1183.74 274.51 1184.11 272.01C1184.27 270.389 1184.32 268.758 1184.25 267.13V198.1C1190.39 198.1 1195.65 198.28 1200.89 198.04C1204.38 197.88 1206.51 199.1 1208.23 202.2C1212.6 210.02 1217.29 217.67 1221.85 225.39C1230.85 240.64 1239.98 255.87 1248.92 271.18C1250.82 274.43 1252.87 276.56 1257.04 276.25C1261.5 275.92 1266.04 276.3 1270.49 276.13C1273.38 276.03 1276.95 277.37 1278.7 273.79C1280.34 270.47 1277.73 268 1276.19 265.5ZM1217.81 174.57C1207.51 175.39 1197.09 174.89 1186.72 174.91C1186.01 174.786 1185.32 174.578 1184.66 174.29V125.12C1184.94 124.87 1185.23 124.37 1185.54 124.37C1198.94 124.05 1212.36 123.12 1225.68 125.46C1227.68 125.807 1229.65 126.312 1231.57 126.97C1245.46 131.76 1251.75 146.07 1245.96 159.59C1243.96 164.29 1240.6 168.04 1235.96 169.76C1230.07 171.91 1224 174.08 1217.81 174.57ZM844.81 226.07C844.72 228.07 844.56 230 844.55 231.97V269.3C844.55 275.3 843.72 276.09 837.93 276.19C833.85 276.27 829.77 276.32 825.69 276.19C821.61 276.06 820.46 274.9 820.21 270.6C820.13 269.38 820.21 268.15 820.21 266.92V110.92C820.21 109.5 820.14 108.06 820.21 106.64C820.47 102.8 821.62 101.39 825.32 101.22C829.987 101.013 834.68 101.013 839.4 101.22C843.22 101.39 844.28 102.66 844.53 106.56C844.64 108.19 844.53 109.83 844.53 111.46V193.4C844.53 195.56 844.71 197.72 844.86 201.06C847.05 199.24 848.44 198.23 849.66 197.06C861.95 185.12 874.26 173.2 886.42 161.13C887.499 159.929 888.833 158.985 890.325 158.367C891.817 157.749 893.428 157.474 895.04 157.56C900.95 157.77 906.87 157.56 912.79 157.63C915.2 157.63 917.9 157.24 918.92 160.33C919.86 163.16 918.06 164.88 916.19 166.58C901.357 179.987 886.543 193.41 871.75 206.85C869.96 208.48 868.2 210.17 866.16 212.08C867.41 213.51 868.37 214.78 869.5 215.88C886.4 232.427 903.313 248.97 920.24 265.51C921.24 266.51 922.58 267.35 923.24 268.51C924.02 270 924.97 272.08 924.47 273.36C923.97 274.64 921.85 275.82 920.28 276.06C917.443 276.362 914.585 276.409 911.74 276.2C906.25 276.07 900.2 277.26 895.46 275.29C890.93 273.41 887.73 268.29 884.04 264.48C873.08 253.22 862.15 241.94 851.25 230.64C849.58 228.91 847.86 227.23 846.16 225.53L844.81 226.07ZM1570.06 226.24V237.81C1570.06 248.41 1570.12 259.01 1570.06 269.62C1570.06 275.02 1568.93 276.07 1563.64 276.19C1559.76 276.27 1555.89 276.27 1552.02 276.19C1546.66 276.07 1545.77 275.13 1545.54 269.65V111.28C1545.54 101.28 1545.67 101.12 1555.86 101.12C1558.92 101.12 1561.99 100.98 1565.03 101.19C1568.41 101.43 1569.72 102.81 1570.03 106.14C1570.19 107.76 1570.09 109.4 1570.09 111.04V201.18C1572.75 198.9 1574.41 197.63 1575.9 196.18C1587.58 184.8 1599.32 173.47 1610.84 161.93C1613.94 158.84 1617.07 157.16 1621.57 157.48C1626.85 157.86 1632.17 157.54 1637.47 157.58C1640.06 157.58 1643.03 156.98 1644.32 160.21C1645.61 163.44 1643.12 165.08 1641.2 166.83C1626.41 180.27 1611.61 193.697 1596.8 207.11C1595.15 208.6 1593.56 210.11 1591.47 212.11C1593.04 213.79 1594.31 215.28 1595.7 216.65C1612.45 233.05 1629.22 249.443 1645.99 265.83C1646.87 266.68 1647.99 267.4 1648.53 268.44C1649.24 269.98 1650.18 272.03 1649.68 273.36C1649.25 274.098 1648.66 274.724 1647.95 275.188C1647.23 275.652 1646.42 275.941 1645.57 276.03C1638.03 276.3 1630.47 276.42 1622.95 275.97C1620.95 275.85 1618.64 273.92 1617.02 272.27C1603.47 258.44 1590.02 244.48 1576.56 230.57C1574.91 228.86 1573.19 227.23 1571.49 225.57L1570.06 226.24ZM1046.6 207.38C1044.53 176.89 1023.36 156.47 995.4 154.82C971.1 153.39 952.08 162.42 939.04 183.14C931.49 195.14 929.04 208.51 930.37 222.44C932.7 247.26 944.87 265.35 968.3 274.87C981.77 280.34 995.75 280.23 1009.71 276.55C1022.16 273.27 1032.12 266.09 1040.3 256.31C1043.92 251.98 1043.74 250.17 1039.53 246.68C1037.65 245.13 1035.69 243.68 1033.76 242.15C1026.38 236.38 1026.48 236.47 1020.33 243.43C1009.96 255.2 996.95 259.69 981.78 255.52C967.32 251.52 958.89 241.52 955.63 225.68C958.77 225.52 961.15 225.31 963.53 225.31H1036.29C1037.92 225.31 1039.56 225.38 1041.18 225.25C1045.46 224.91 1046.51 224.02 1046.74 219.61C1046.92 215.533 1046.85 211.449 1046.55 207.38H1046.6ZM956.54 203.85C956.9 201.972 957.388 200.121 958 198.31C966.38 178.46 987.36 171.86 1005.19 179.66C1015.04 183.98 1019.82 192.53 1021.46 203.85H956.54ZM671.67 268.85C671.08 260.72 670.49 252.59 670.38 244.45C670.18 229.15 670.51 213.85 670.26 198.56C669.89 175.86 657.93 160.66 636.26 156.12C617.52 152.19 599.78 155.39 583.58 165.91C581.532 167.255 579.614 168.789 577.85 170.49C574.74 173.49 574.64 175.03 577.16 178.4C578.5 180.2 580.03 181.85 581.47 183.57C587.64 190.87 587.58 190.78 595.41 185.05C606.65 176.82 619.21 174.56 632.54 178.25C642.27 180.93 647.37 189.71 645.54 199.81C638.75 200.1 631.84 200.32 624.93 200.71C614.1 201.31 603.41 202.79 593.23 206.71C583.61 210.45 575.23 216.06 571.57 226.13C563.94 246.8 571.57 268.35 594.01 276.23C603.7 279.63 613.65 279.58 623.62 277.96C632.48 276.52 640.12 272.35 647.7 265.58C648.27 268.08 648.6 269.39 648.88 270.72C649.88 275.36 650.64 276.07 655.37 276.2C658.63 276.28 661.9 276.27 665.16 276.2C671.24 276.08 672.07 274.94 671.62 268.81L671.67 268.85ZM604.89 255.75C599.6 253.9 595.65 250.75 594.29 244.94C592.72 238.27 594.35 233.35 600.07 229.56C602.77 227.743 605.712 226.316 608.81 225.32C620.81 221.62 633.13 221.04 645.92 221.26C649.1 245.92 627.49 263.61 604.84 255.71L604.89 255.75ZM1393.24 269.42C1392.55 261.92 1391.84 254.42 1391.73 246.86C1391.47 229.53 1391.89 212.18 1391.45 194.86C1390.99 177.05 1380.45 163.5 1363.69 157.69C1352.79 153.92 1341.64 153.89 1330.47 155.8C1319.73 157.501 1309.63 162.018 1301.2 168.89C1296 173.17 1295.86 174.89 1300.02 179.95C1301.69 182 1303.39 184.05 1305.14 186.03C1308.98 190.39 1310.3 190.57 1314.71 186.86C1323.71 179.25 1334.16 176.24 1345.89 176.74C1357.15 177.21 1367.97 182.89 1367.79 199.42C1365.54 199.65 1363.57 199.94 1361.59 200.04C1356.09 200.33 1350.59 200.41 1345.09 200.79C1334.89 201.49 1324.82 202.95 1315.19 206.6C1306.19 210.02 1298.48 215.24 1293.99 224.08C1284.35 243.08 1292.18 266.52 1311.81 274.61C1330.48 282.31 1348.88 281.11 1365.67 268.61C1366.74 267.82 1367.94 267.19 1369.39 266.28C1369.83 268.15 1370.13 269.52 1370.48 270.89C1371.72 275.72 1372.15 276.11 1377.1 276.23C1380.56 276.31 1384.04 276.32 1387.5 276.23C1392.68 276 1393.67 274.58 1393.19 269.38L1393.24 269.42ZM1343 256.73C1337.55 257.282 1332.05 256.914 1326.72 255.64C1320.27 254.2 1316.19 249.81 1315.42 242.82C1314.65 235.83 1317.9 231.08 1323.88 228C1326.21 226.748 1328.66 225.726 1331.19 224.95C1342.86 221.65 1354.82 221.07 1367.19 221.1C1370.34 235.22 1361.36 254.46 1343 256.73ZM1441.06 167.54C1443.54 165.8 1445.17 164.63 1446.83 163.54C1461.83 153.54 1477.97 151.92 1494.67 157.97C1509.01 163.16 1516.31 174.68 1519.67 188.92C1520.69 193.489 1521.2 198.158 1521.18 202.84C1521.33 224.65 1521.24 246.46 1521.24 268.26C1521.24 269.69 1521.61 271.35 1521.02 272.48C1520.27 273.92 1518.78 275.87 1517.49 275.96C1512.02 276.35 1506.49 276.22 1501 276.12C1500.48 276.139 1499.97 276.053 1499.49 275.866C1499 275.679 1498.57 275.396 1498.2 275.034C1497.83 274.671 1497.54 274.238 1497.34 273.759C1497.15 273.28 1497.05 272.767 1497.06 272.25C1496.93 270.63 1496.96 269 1496.96 267.37C1496.96 249.84 1497.04 232.31 1496.96 214.78C1496.93 209.282 1496.55 203.792 1495.84 198.34C1494.61 189.19 1491.1 181.2 1481.47 178.19C1471.33 175.01 1461.66 176.12 1453.47 183.5C1447.47 188.9 1444.47 196.02 1443.05 203.79C1442.3 208.207 1441.92 212.68 1441.92 217.16C1441.79 234.28 1441.92 251.4 1441.85 268.52C1441.85 275.59 1441.22 276.17 1434.19 276.23C1430.72 276.23 1427.26 276.3 1423.79 276.23C1418.68 276.1 1417.7 275.13 1417.49 270.23C1417.43 268.6 1417.41 267.01 1417.41 265.38C1417.41 261.82 1417.41 207.05 1417.35 177.91C1417.35 173.23 1416.73 168.55 1416.58 163.91C1416.43 158.91 1417.49 157.85 1422.58 157.72C1426.25 157.62 1429.92 157.64 1433.58 157.72C1439.22 157.81 1439.73 158.29 1440.51 163.86C1440.58 164.7 1440.76 165.67 1441.07 167.54H1441.06ZM754.43 279.42C736.43 279.07 720.68 273.67 708.02 260.58C699.566 251.881 694.084 240.728 692.36 228.72C690.06 213.87 691.46 199.44 698.74 185.98C708.38 168.17 723.63 158.47 743.35 155.36C755.701 153.346 768.371 155.027 779.77 160.19C786.722 163.204 792.852 167.836 797.65 173.7C800.74 177.51 800.52 179.42 796.7 182.35C793.31 184.96 789.79 187.35 786.27 189.83C783.72 191.59 781.27 191.49 779.27 188.88C770.56 177.39 758.72 174.73 745.43 177.63C731.7 180.63 722.93 189.55 718.86 202.84C715.417 213.643 716.069 225.336 720.69 235.69C731.59 260.74 766 263.21 779.8 245.83C783.3 241.43 784.42 241.58 788.95 244.83C791.61 246.72 794.22 248.68 796.8 250.67C801.49 254.31 801.8 256.35 797.92 260.67C790.51 268.91 781.54 274.79 770.68 277.26C765.4 278.39 759.87 278.7 754.43 279.42ZM1094.33 167.18C1096.33 165.67 1097.43 164.84 1098.54 163.98C1109.31 155.55 1121.54 153.12 1134.84 155.31C1139.92 156.15 1140.94 157.51 1140.44 162.79C1140.11 166.23 1139.58 169.66 1139.08 173.08C1138.21 178.99 1136.85 179.73 1130.96 179.08C1126.55 178.453 1122.07 178.379 1117.64 178.86C1109.64 179.97 1103.94 184.75 1100.21 191.86C1096.75 198.596 1095 206.079 1095.11 213.65V266.85C1095.11 268.27 1095.2 269.71 1095.11 271.12C1094.78 274.64 1093.64 276 1090.26 276.12C1085.37 276.31 1080.47 276.31 1075.59 276.12C1072 275.98 1071.05 274.89 1070.68 271.2C1070.5 269.38 1070.59 267.54 1070.59 265.7V200.28C1070.59 188.67 1070.21 177.06 1069.94 165.45C1069.77 158.17 1070.19 157.63 1077.2 157.57C1080.46 157.57 1083.73 157.51 1086.99 157.57C1092.32 157.67 1092.7 158.02 1093.77 163.33C1093.88 164.32 1094 165.29 1094.33 167.18ZM436.5 197.9V271.9C436.5 274.77 434.61 276.16 431.66 276.17H415.75C412.75 276.17 411.06 274.51 411.06 271.6V110.05C411.06 101.18 411.37 100.91 420.44 100.88H429C435.59 101 436.43 101.83 436.51 108.28V173.28H519.07V108.58C519.15 102.13 519.99 101.3 526.58 101.18C529.43 101.13 532.29 101.18 535.14 101.18C544.21 101.18 544.52 101.48 544.52 110.36V271.89C544.52 274.79 542.8 276.43 539.83 276.46C534.497 276.5 529.193 276.5 523.92 276.46C520.97 276.46 519.08 275.06 519.08 272.2V197.89L436.5 197.9Z" fill="white"/>
<path d="M341.86 189.32C341.879 217.916 340.257 246.49 337 274.9C336.663 277.752 335.759 280.508 334.34 283.005C332.922 285.502 331.017 287.69 328.74 289.44C328.37 289.74 327.98 290.01 327.59 290.28C304.92 307.069 281.308 322.547 256.87 336.64C232.273 350.835 206.9 363.642 180.87 375C180.5 375.19 180.1 375.34 179.74 375.51C179.604 375.585 179.464 375.651 179.32 375.71C174.183 377.755 168.457 377.755 163.32 375.71C162.83 375.49 162.32 375.29 161.82 375.05C161.809 375.056 161.797 375.059 161.785 375.059C161.773 375.059 161.761 375.056 161.75 375.05C135.674 363.682 110.26 350.852 85.6301 336.62C61.1719 322.535 37.5429 307.056 14.8601 290.26C14.4701 289.99 14.0801 289.72 13.7101 289.42C11.4399 287.666 9.5426 285.476 8.1294 282.98C6.7162 280.483 5.8155 277.729 5.48009 274.88C-1.00631 218.25 -1.03984 161.067 5.3801 104.43C5.4501 103.64 5.53009 102.86 5.65009 102.07C6.45596 97.2425 8.88263 92.8336 12.5301 89.57C12.5384 89.5492 12.552 89.5309 12.5696 89.5169C12.5871 89.5029 12.6079 89.4936 12.6301 89.49C13.5601 88.78 14.4901 88.09 15.4301 87.43C61.2859 53.5732 110.824 25.0116 163.1 2.29002C163.42 2.14002 163.76 2.02002 164.1 1.87002C168.625 0.156387 173.614 0.124452 178.16 1.78003C178.255 1.79176 178.347 1.82236 178.43 1.87002C178.97 2.09002 179.51 2.34002 180.05 2.59002C206.204 13.9564 231.686 26.8108 256.37 41.09C280.895 55.2494 304.599 70.7842 327.37 87.62C328.16 88.17 328.94 88.75 329.73 89.37C329.78 89.37 329.83 89.42 329.88 89.49C333.588 92.7559 336.059 97.1977 336.88 102.07C337 102.86 337.07 103.64 337.15 104.43C340.323 132.615 341.896 160.957 341.86 189.32Z" fill="url(#paint0_linear)"/>
<path d="M245.64 261.74H239.42V110C239.42 108.878 238.974 107.802 238.181 107.009C237.388 106.216 236.312 105.77 235.19 105.77H203.61C203.055 105.77 202.505 105.879 201.991 106.092C201.478 106.305 201.012 106.616 200.619 107.009C200.226 107.402 199.915 107.868 199.702 108.381C199.49 108.894 199.38 109.445 199.38 110V168.72H143V116.11H149.22C150.106 116.112 150.972 115.847 151.705 115.35C152.438 114.852 153.003 114.144 153.327 113.32C153.651 112.496 153.719 111.593 153.522 110.729C153.324 109.865 152.87 109.082 152.22 108.48L126 84.06C125.183 83.3052 124.112 82.886 123 82.886C121.888 82.886 120.817 83.3052 120 84.06L93.7601 108.48C93.1098 109.082 92.6562 109.865 92.4587 110.729C92.2612 111.593 92.3289 112.496 92.653 113.32C92.9772 114.144 93.5427 114.852 94.2754 115.35C95.0082 115.847 95.8742 116.112 96.7601 116.11H103V267.81C103 268.933 103.445 270.01 104.238 270.805C105.031 271.599 106.107 272.047 107.23 272.05H138.8C139.923 272.047 140.999 271.599 141.792 270.805C142.585 270.01 143.03 268.933 143.03 267.81V209.1H199.38V261.74H193.16C192.274 261.738 191.408 262.003 190.675 262.5C189.943 262.998 189.377 263.706 189.053 264.53C188.729 265.354 188.661 266.257 188.859 267.121C189.056 267.985 189.51 268.768 190.16 269.37L216.4 293.79C217.216 294.547 218.287 294.968 219.4 294.968C220.513 294.968 221.584 294.547 222.4 293.79L248.64 269.37C249.29 268.768 249.744 267.985 249.942 267.121C250.139 266.257 250.071 265.354 249.747 264.53C249.423 263.706 248.858 262.998 248.125 262.5C247.392 262.003 246.526 261.738 245.64 261.74Z" fill="white"/>
<defs>
<linearGradient id="paint0_linear" x1="171.2" y1="377.27" x2="171.2" y2="0.580017" gradientUnits="userSpaceOnUse">
<stop stop-color="#1BA94C"/>
<stop offset="1" stop-color="#32C766"/>
</linearGradient>
</defs>
</svg>
