<svg width="115" height="115" viewBox="0 0 115 115" fill="none" xmlns="http://www.w3.org/2000/svg">
<path d="M90.6599 0.438843H24.1599C11.0452 0.438843 0.409912 11.0741 0.409912 24.1888V90.6888C0.409912 103.804 11.0452 114.439 24.1599 114.439H90.6599C103.779 114.439 114.41 103.804 114.41 90.6888V24.1888C114.41 11.0741 103.779 0.438843 90.6599 0.438843ZM38.4099 90.6888H24.1599V38.4388H38.4099V90.6888ZM31.2849 32.4158C26.6964 32.4158 22.9724 28.6633 22.9724 24.0368C22.9724 19.4103 26.6964 15.6578 31.2849 15.6578C35.8734 15.6578 39.5974 19.4103 39.5974 24.0368C39.5974 28.6633 35.8782 32.4158 31.2849 32.4158ZM95.4099 90.6888H81.1599V64.0698C81.1599 48.0718 62.1599 49.2831 62.1599 64.0698V90.6888H47.9099V38.4388H62.1599V46.8226C68.7909 34.5391 95.4099 33.6318 95.4099 58.5836V90.6888Z" fill="white"/>
</svg>
