<svg width="115" height="115" viewBox="0 0 115 115" fill="none" xmlns="http://www.w3.org/2000/svg">
<path d="M57.4099 9.93884C83.6014 9.93884 104.91 31.2473 104.91 57.4388C104.91 83.6303 83.6014 104.939 57.4099 104.939C31.2184 104.939 9.90991 83.6303 9.90991 57.4388C9.90991 31.2473 31.2184 9.93884 57.4099 9.93884ZM57.4099 0.438843C25.9317 0.438843 0.409912 25.9606 0.409912 57.4388C0.409912 88.9171 25.9317 114.439 57.4099 114.439C88.8882 114.439 114.41 88.9171 114.41 57.4388C114.41 25.9606 88.8882 0.438843 57.4099 0.438843ZM57.5097 85.1028C38.9514 85.1028 28.9099 73.5223 28.9099 58.5693C28.9099 42.5951 40.2197 29.7748 60.4404 29.7748C75.1987 29.7748 85.9099 39.3651 85.9099 52.5796C85.9099 73.2706 61.3762 78.7331 62.6064 66.9293C60.9249 69.5656 58.2032 72.5201 52.9829 72.5201C47.0122 72.5201 43.2929 68.1501 43.2929 61.1058C43.2929 50.5513 50.2327 41.6308 58.4454 41.6308C62.3832 41.6308 65.0907 43.7113 66.2259 46.9033L67.3279 43.0273H72.8807C72.3012 45.0033 67.3659 63.2813 67.3659 63.2813C65.8317 69.6131 70.5722 69.7223 74.7854 66.3593C82.6942 60.2318 83.0979 44.2053 72.4152 37.5221C60.9629 30.6583 34.9044 34.9048 34.9044 58.1703C34.9044 71.4988 44.2904 80.4526 58.2459 80.4526C66.4112 80.4526 71.4082 78.2438 75.5739 75.8261L78.3669 79.8588C74.3009 82.1483 67.7697 85.1028 57.5097 85.1028ZM51.9427 51.1261C50.2469 54.3086 49.1497 58.4316 49.1497 61.6331C49.1497 70.2068 57.5144 70.2591 61.6232 62.2031C63.3142 58.8923 64.4067 54.6696 64.4067 51.4443C64.4067 44.5188 56.1037 43.2886 51.9427 51.1261Z" fill="white"/>
</svg>
